<svg xmlns="http://www.w3.org/2000/svg" xmlns:xlink="http://www.w3.org/1999/xlink" width="500" zoomAndPan="magnify" viewBox="0 0 375 374.999991" height="500" preserveAspectRatio="xMidYMid meet" version="1.2"><defs><clipPath id="a81b9f28c6"><path d="M 27.097656 115.15625 L 171.789062 115.15625 L 171.789062 259.84375 L 27.097656 259.84375 Z M 27.097656 115.15625 "/></clipPath><clipPath id="18e4b0d318"><path d="M 99.441406 115.15625 C 59.488281 115.15625 27.097656 147.546875 27.097656 187.5 C 27.097656 227.453125 59.488281 259.84375 99.441406 259.84375 C 139.398438 259.84375 171.789062 227.453125 171.789062 187.5 C 171.789062 147.546875 139.398438 115.15625 99.441406 115.15625 Z M 99.441406 115.15625 "/></clipPath><linearGradient x1="-0.00000164389" gradientTransform="matrix(0.565191,0,0,0.565191,27.098747,115.155547)" y1="128" x2="255.999985" gradientUnits="userSpaceOnUse" y2="128" id="b576cc3f52"><stop style="stop-color:#ffde59;stop-opacity:1;" offset="0"/><stop style="stop-color:#ffde59;stop-opacity:1;" offset="0.0078125"/><stop style="stop-color:#ffdd59;stop-opacity:1;" offset="0.015625"/><stop style="stop-color:#ffdd59;stop-opacity:1;" offset="0.0234375"/><stop style="stop-color:#ffdc59;stop-opacity:1;" offset="0.03125"/><stop style="stop-color:#ffdb59;stop-opacity:1;" offset="0.0390625"/><stop style="stop-color:#ffdb58;stop-opacity:1;" offset="0.046875"/><stop style="stop-color:#ffda58;stop-opacity:1;" offset="0.0546875"/><stop style="stop-color:#ffda58;stop-opacity:1;" offset="0.0625"/><stop style="stop-color:#ffd958;stop-opacity:1;" offset="0.0703125"/><stop style="stop-color:#ffd858;stop-opacity:1;" offset="0.078125"/><stop style="stop-color:#ffd858;stop-opacity:1;" offset="0.0859375"/><stop style="stop-color:#ffd758;stop-opacity:1;" offset="0.09375"/><stop style="stop-color:#ffd758;stop-opacity:1;" offset="0.101562"/><stop style="stop-color:#ffd658;stop-opacity:1;" offset="0.109375"/><stop style="stop-color:#ffd558;stop-opacity:1;" offset="0.117187"/><stop style="stop-color:#ffd558;stop-opacity:1;" offset="0.125"/><stop style="stop-color:#ffd457;stop-opacity:1;" offset="0.132812"/><stop style="stop-color:#ffd457;stop-opacity:1;" offset="0.140625"/><stop style="stop-color:#ffd357;stop-opacity:1;" offset="0.148437"/><stop style="stop-color:#ffd257;stop-opacity:1;" offset="0.15625"/><stop style="stop-color:#ffd257;stop-opacity:1;" offset="0.164062"/><stop style="stop-color:#ffd157;stop-opacity:1;" offset="0.171875"/><stop style="stop-color:#ffd157;stop-opacity:1;" offset="0.179687"/><stop style="stop-color:#ffd057;stop-opacity:1;" offset="0.1875"/><stop style="stop-color:#ffcf57;stop-opacity:1;" offset="0.195312"/><stop style="stop-color:#ffcf57;stop-opacity:1;" offset="0.203125"/><stop style="stop-color:#ffce57;stop-opacity:1;" offset="0.210937"/><stop style="stop-color:#ffce56;stop-opacity:1;" offset="0.21875"/><stop style="stop-color:#ffcd56;stop-opacity:1;" offset="0.226562"/><stop style="stop-color:#ffcc56;stop-opacity:1;" offset="0.234375"/><stop style="stop-color:#ffcc56;stop-opacity:1;" offset="0.242187"/><stop style="stop-color:#ffcb56;stop-opacity:1;" offset="0.25"/><stop style="stop-color:#ffcb56;stop-opacity:1;" offset="0.257812"/><stop style="stop-color:#ffca56;stop-opacity:1;" offset="0.265625"/><stop style="stop-color:#ffc956;stop-opacity:1;" offset="0.273437"/><stop style="stop-color:#ffc956;stop-opacity:1;" offset="0.28125"/><stop style="stop-color:#ffc856;stop-opacity:1;" offset="0.289062"/><stop style="stop-color:#ffc855;stop-opacity:1;" offset="0.296875"/><stop style="stop-color:#ffc755;stop-opacity:1;" offset="0.304687"/><stop style="stop-color:#ffc655;stop-opacity:1;" offset="0.3125"/><stop style="stop-color:#ffc655;stop-opacity:1;" offset="0.320312"/><stop style="stop-color:#ffc555;stop-opacity:1;" offset="0.328125"/><stop style="stop-color:#ffc555;stop-opacity:1;" offset="0.335937"/><stop style="stop-color:#ffc455;stop-opacity:1;" offset="0.34375"/><stop style="stop-color:#ffc355;stop-opacity:1;" offset="0.351562"/><stop style="stop-color:#ffc355;stop-opacity:1;" offset="0.359375"/><stop style="stop-color:#ffc255;stop-opacity:1;" offset="0.367187"/><stop style="stop-color:#ffc255;stop-opacity:1;" offset="0.375"/><stop style="stop-color:#ffc154;stop-opacity:1;" offset="0.382812"/><stop style="stop-color:#ffc054;stop-opacity:1;" offset="0.390625"/><stop style="stop-color:#ffc054;stop-opacity:1;" offset="0.398437"/><stop style="stop-color:#ffbf54;stop-opacity:1;" offset="0.40625"/><stop style="stop-color:#ffbf54;stop-opacity:1;" offset="0.414062"/><stop style="stop-color:#ffbe54;stop-opacity:1;" offset="0.421875"/><stop style="stop-color:#ffbd54;stop-opacity:1;" offset="0.429687"/><stop style="stop-color:#ffbd54;stop-opacity:1;" offset="0.4375"/><stop style="stop-color:#ffbc54;stop-opacity:1;" offset="0.445312"/><stop style="stop-color:#ffbc54;stop-opacity:1;" offset="0.453125"/><stop style="stop-color:#ffbb54;stop-opacity:1;" offset="0.460937"/><stop style="stop-color:#ffba53;stop-opacity:1;" offset="0.46875"/><stop style="stop-color:#ffba53;stop-opacity:1;" offset="0.476562"/><stop style="stop-color:#ffb953;stop-opacity:1;" offset="0.484375"/><stop style="stop-color:#ffb853;stop-opacity:1;" offset="0.492187"/><stop style="stop-color:#ffb853;stop-opacity:1;" offset="0.5"/><stop style="stop-color:#ffb753;stop-opacity:1;" offset="0.507812"/><stop style="stop-color:#ffb753;stop-opacity:1;" offset="0.515625"/><stop style="stop-color:#ffb653;stop-opacity:1;" offset="0.523438"/><stop style="stop-color:#ffb553;stop-opacity:1;" offset="0.53125"/><stop style="stop-color:#ffb553;stop-opacity:1;" offset="0.539062"/><stop style="stop-color:#ffb452;stop-opacity:1;" offset="0.546875"/><stop style="stop-color:#ffb452;stop-opacity:1;" offset="0.554687"/><stop style="stop-color:#ffb352;stop-opacity:1;" offset="0.5625"/><stop style="stop-color:#ffb252;stop-opacity:1;" offset="0.570312"/><stop style="stop-color:#ffb252;stop-opacity:1;" offset="0.578125"/><stop style="stop-color:#ffb152;stop-opacity:1;" offset="0.585938"/><stop style="stop-color:#ffb152;stop-opacity:1;" offset="0.59375"/><stop style="stop-color:#ffb052;stop-opacity:1;" offset="0.601562"/><stop style="stop-color:#ffaf52;stop-opacity:1;" offset="0.609375"/><stop style="stop-color:#ffaf52;stop-opacity:1;" offset="0.617187"/><stop style="stop-color:#ffae52;stop-opacity:1;" offset="0.625"/><stop style="stop-color:#ffae51;stop-opacity:1;" offset="0.632812"/><stop style="stop-color:#ffad51;stop-opacity:1;" offset="0.640625"/><stop style="stop-color:#ffac51;stop-opacity:1;" offset="0.648438"/><stop style="stop-color:#ffac51;stop-opacity:1;" offset="0.65625"/><stop style="stop-color:#ffab51;stop-opacity:1;" offset="0.664062"/><stop style="stop-color:#ffab51;stop-opacity:1;" offset="0.671875"/><stop style="stop-color:#ffaa51;stop-opacity:1;" offset="0.679687"/><stop style="stop-color:#ffa951;stop-opacity:1;" offset="0.6875"/><stop style="stop-color:#ffa951;stop-opacity:1;" offset="0.695312"/><stop style="stop-color:#ffa851;stop-opacity:1;" offset="0.703125"/><stop style="stop-color:#ffa851;stop-opacity:1;" offset="0.710938"/><stop style="stop-color:#ffa750;stop-opacity:1;" offset="0.71875"/><stop style="stop-color:#ffa650;stop-opacity:1;" offset="0.726562"/><stop style="stop-color:#ffa650;stop-opacity:1;" offset="0.734375"/><stop style="stop-color:#ffa550;stop-opacity:1;" offset="0.742187"/><stop style="stop-color:#ffa550;stop-opacity:1;" offset="0.75"/><stop style="stop-color:#ffa450;stop-opacity:1;" offset="0.757812"/><stop style="stop-color:#ffa350;stop-opacity:1;" offset="0.765625"/><stop style="stop-color:#ffa350;stop-opacity:1;" offset="0.773438"/><stop style="stop-color:#ffa250;stop-opacity:1;" offset="0.78125"/><stop style="stop-color:#ffa250;stop-opacity:1;" offset="0.789062"/><stop style="stop-color:#ffa14f;stop-opacity:1;" offset="0.796875"/><stop style="stop-color:#ffa04f;stop-opacity:1;" offset="0.804687"/><stop style="stop-color:#ffa04f;stop-opacity:1;" offset="0.8125"/><stop style="stop-color:#ff9f4f;stop-opacity:1;" offset="0.820312"/><stop style="stop-color:#ff9f4f;stop-opacity:1;" offset="0.828125"/><stop style="stop-color:#ff9e4f;stop-opacity:1;" offset="0.835938"/><stop style="stop-color:#ff9d4f;stop-opacity:1;" offset="0.84375"/><stop style="stop-color:#ff9d4f;stop-opacity:1;" offset="0.851562"/><stop style="stop-color:#ff9c4f;stop-opacity:1;" offset="0.859375"/><stop style="stop-color:#ff9c4f;stop-opacity:1;" offset="0.867187"/><stop style="stop-color:#ff9b4f;stop-opacity:1;" offset="0.875"/><stop style="stop-color:#ff9a4e;stop-opacity:1;" offset="0.882812"/><stop style="stop-color:#ff9a4e;stop-opacity:1;" offset="0.890625"/><stop style="stop-color:#ff994e;stop-opacity:1;" offset="0.898438"/><stop style="stop-color:#ff994e;stop-opacity:1;" offset="0.90625"/><stop style="stop-color:#ff984e;stop-opacity:1;" offset="0.914062"/><stop style="stop-color:#ff974e;stop-opacity:1;" offset="0.921875"/><stop style="stop-color:#ff974e;stop-opacity:1;" offset="0.929687"/><stop style="stop-color:#ff964e;stop-opacity:1;" offset="0.9375"/><stop style="stop-color:#ff964e;stop-opacity:1;" offset="0.945312"/><stop style="stop-color:#ff954e;stop-opacity:1;" offset="0.953125"/><stop style="stop-color:#ff944e;stop-opacity:1;" offset="0.960938"/><stop style="stop-color:#ff944d;stop-opacity:1;" offset="0.96875"/><stop style="stop-color:#ff934d;stop-opacity:1;" offset="0.976562"/><stop style="stop-color:#ff934d;stop-opacity:1;" offset="0.984375"/><stop style="stop-color:#ff924d;stop-opacity:1;" offset="0.992187"/><stop style="stop-color:#ff914d;stop-opacity:1;" offset="1"/></linearGradient></defs><g id="1b0c62a970"><rect x="0" width="375" y="0" height="374.999991" style="fill:#ffffff;fill-opacity:1;stroke:none;"/><rect x="0" width="375" y="0" height="374.999991" style="fill:#ffffff;fill-opacity:1;stroke:none;"/><g clip-rule="nonzero" clip-path="url(#a81b9f28c6)"><g clip-rule="nonzero" clip-path="url(#18e4b0d318)"><path style=" stroke:none;fill-rule:nonzero;fill:url(#b576cc3f52);" d="M 27.097656 115.15625 L 27.097656 259.84375 L 171.789062 259.84375 L 171.789062 115.15625 Z M 27.097656 115.15625 "/></g></g><g style="fill:#000000;fill-opacity:1;"><g transform="translate(37.500002, 244.008962)"><path style="stroke:none" d="M 117.546875 -57.5625 C 117.546875 -48.625 116.113281 -40.132812 113.25 -32.09375 C 110.382812 -24.0625 105.988281 -17.28125 100.0625 -11.75 L 115.734375 13.109375 L 91.484375 13.109375 L 82.4375 -1.203125 C 79.320312 -0.203125 76.054688 0.597656 72.640625 1.203125 C 69.222656 1.804688 65.554688 2.109375 61.640625 2.109375 C 52.191406 2.109375 43.953125 0.503906 36.921875 -2.703125 C 29.890625 -5.921875 24.085938 -10.289062 19.515625 -15.8125 C 14.941406 -21.34375 11.523438 -27.695312 9.265625 -34.875 C 7.003906 -42.0625 5.875 -49.625 5.875 -57.5625 C 5.875 -65.5 7.003906 -73.0625 9.265625 -80.25 C 11.523438 -87.4375 14.941406 -93.789062 19.515625 -99.3125 C 24.085938 -104.84375 29.890625 -109.1875 36.921875 -112.34375 C 43.953125 -115.507812 52.191406 -117.09375 61.640625 -117.09375 C 71.179688 -117.09375 79.46875 -115.507812 86.5 -112.34375 C 93.53125 -109.1875 99.332031 -104.84375 103.90625 -99.3125 C 108.476562 -93.789062 111.894531 -87.4375 114.15625 -80.25 C 116.414062 -73.0625 117.546875 -65.5 117.546875 -57.5625 Z M 28.484375 -57.5625 C 28.484375 -49.625 29.785156 -42.613281 32.390625 -36.53125 C 35.003906 -30.457031 38.796875 -25.738281 43.765625 -22.375 C 48.742188 -19.007812 54.703125 -17.328125 61.640625 -17.328125 C 68.773438 -17.328125 74.800781 -19.007812 79.71875 -22.375 C 84.644531 -25.738281 88.410156 -30.457031 91.015625 -36.53125 C 93.628906 -42.613281 94.9375 -49.625 94.9375 -57.5625 C 94.9375 -65.5 93.628906 -72.457031 91.015625 -78.4375 C 88.410156 -84.414062 84.644531 -89.085938 79.71875 -92.453125 C 74.800781 -95.816406 68.773438 -97.5 61.640625 -97.5 C 54.703125 -97.5 48.742188 -95.816406 43.765625 -92.453125 C 38.796875 -89.085938 35.003906 -84.414062 32.390625 -78.4375 C 29.785156 -72.457031 28.484375 -65.5 28.484375 -57.5625 Z M 28.484375 -57.5625 "/></g></g><g style="fill:#000000;fill-opacity:1;"><g transform="translate(157.635736, 213.122175)"><path style="stroke:none" d="M 14.484375 0 L 4.640625 0 L 4.640625 -52.140625 L 39.421875 -52.140625 L 39.421875 -43.3125 L 14.484375 -43.3125 L 14.484375 -30.46875 L 36.828125 -30.46875 L 36.828125 -21.734375 L 14.484375 -21.734375 Z M 14.484375 0 "/></g></g><g style="fill:#000000;fill-opacity:1;"><g transform="translate(198.906298, 213.122175)"><path style="stroke:none" d="M 25.140625 0.953125 C 20.179688 0.953125 16.148438 0.125 13.046875 -1.53125 C 9.953125 -3.195312 7.6875 -5.53125 6.25 -8.53125 C 4.8125 -11.539062 4.09375 -15.003906 4.09375 -18.921875 L 4.09375 -52.140625 L 14 -52.140625 L 14 -18.921875 C 14 -16.785156 14.34375 -14.875 15.03125 -13.1875 C 15.71875 -11.5 16.878906 -10.1875 18.515625 -9.25 C 20.160156 -8.320312 22.367188 -7.859375 25.140625 -7.859375 C 27.960938 -7.859375 30.179688 -8.320312 31.796875 -9.25 C 33.421875 -10.1875 34.570312 -11.5 35.25 -13.1875 C 35.9375 -14.875 36.28125 -16.785156 36.28125 -18.921875 L 36.28125 -52.140625 L 46.1875 -52.140625 L 46.1875 -18.921875 C 46.1875 -15.003906 45.46875 -11.539062 44.03125 -8.53125 C 42.601562 -5.53125 40.335938 -3.195312 37.234375 -1.53125 C 34.140625 0.125 30.109375 0.953125 25.140625 0.953125 Z M 25.140625 0.953125 "/></g></g><g style="fill:#000000;fill-opacity:1;"><g transform="translate(249.264593, 213.122175)"><path style="stroke:none" d="M 14.484375 0 L 4.640625 0 L 4.640625 -52.140625 L 15.71875 -52.140625 L 37.109375 -14.828125 L 37.109375 -52.140625 L 46.9375 -52.140625 L 46.9375 0 L 35.796875 0 L 14.484375 -37.375 Z M 14.484375 0 "/></g></g><g style="fill:#000000;fill-opacity:1;"><g transform="translate(300.8528, 213.122175)"><path style="stroke:none" d="M 19.8125 0 L 4.640625 0 L 4.640625 -52.140625 L 19.8125 -52.140625 C 28.65625 -52.140625 35.410156 -49.882812 40.078125 -45.375 C 44.742188 -40.863281 47.078125 -34.414062 47.078125 -26.03125 C 47.078125 -17.695312 44.726562 -11.273438 40.03125 -6.765625 C 35.34375 -2.253906 28.601562 0 19.8125 0 Z M 14.484375 -43.3125 L 14.484375 -8.8125 L 19.671875 -8.8125 C 23.140625 -8.8125 26.191406 -9.347656 28.828125 -10.421875 C 31.472656 -11.492188 33.535156 -13.289062 35.015625 -15.8125 C 36.492188 -18.34375 37.234375 -21.75 37.234375 -26.03125 C 37.234375 -30.082031 36.503906 -33.375 35.046875 -35.90625 C 33.585938 -38.4375 31.550781 -40.300781 28.9375 -41.5 C 26.320312 -42.707031 23.257812 -43.3125 19.75 -43.3125 Z M 14.484375 -43.3125 "/></g></g></g></svg>